<svg id="Capa_1" enable-background="new 0 0 510 510" height="512" viewBox="0 0 510 510" width="512" xmlns="http://www.w3.org/2000/svg"><g><path d="m450 135c33.084 0 60-26.916 60-60s-26.916-60-60-60-60 26.916-60 60 26.916 60 60 60zm0-90c16.542 0 30 13.458 30 30s-13.458 30-30 30-30-13.458-30-30 13.458-30 30-30z"/><path d="m424.997 465c-17.898 0-26.34-3.973-36.115-8.572-11.383-5.357-24.285-11.428-48.889-11.428-24.603 0-37.504 6.071-48.887 11.428-9.774 4.6-18.216 8.572-36.113 8.572-17.896 0-26.337-3.973-36.111-8.572-11.382-5.357-24.283-11.428-48.886-11.428s-37.504 6.071-48.887 11.428c-9.774 4.6-18.215 8.572-36.112 8.572s-26.338-3.973-36.112-8.572c-11.382-5.357-24.282-11.428-48.885-11.428v30c17.896 0 26.337 3.973 36.111 8.572 11.383 5.357 24.284 11.428 48.887 11.428s37.503-6.071 48.886-11.428c9.774-4.6 18.216-8.572 36.112-8.572s26.337 3.973 36.111 8.572c11.383 5.357 24.284 11.428 48.886 11.428 24.603 0 37.504-6.071 48.887-11.428 9.774-4.6 18.216-8.572 36.112-8.572 17.898 0 26.34 3.973 36.115 8.572 11.384 5.357 24.286 11.428 48.89 11.428s37.505-6.071 48.888-11.428c9.775-4.599 18.217-8.572 36.115-8.572v-30c-24.604 0-37.506 6.071-48.889 11.428-9.775 4.599-18.216 8.572-36.114 8.572z"/><path d="m425.085 329.837c-49.043-25.689-109.448-39.837-170.085-39.837-25.428 0-50.811 2.497-75.336 7.281-.882-24.562-1.971-110.721 22.433-169.536 6.552 16.464 13.201 41.765 8.145 69.572l29.516 5.366c7.082-38.951-3.725-73.061-12.625-92.874 15.562.803 40.719 4.489 65.583 18.303l14.569-26.225c-31.275-17.374-62.405-21.508-81.182-22.187 9.953-12.492 29.525-31.214 59.37-34.808l-3.587-29.785c-38.565 4.644-63.999 27.461-77.753 44.113-11.189-16.603-33.519-37.379-76.852-44.046l-4.562 29.651c33.791 5.199 49.793 20.8 57.068 31.866-1.87.352-3.777.749-5.722 1.207-31.573 7.429-58.042 26.026-76.545 53.781l24.962 16.641c16.608-24.911 38.024-35.93 55.842-40.654-33.88 72.277-29.244 181.21-28.389 196.65-23.062 6.464-44.989 15.029-65.019 25.521-27.664 14.491-56.866 35.696-66.561 56.476-5.332-.823-11.371-1.313-18.355-1.313v30c17.896 0 26.337 3.973 36.111 8.572 11.383 5.357 24.284 11.428 48.887 11.428s37.503-6.071 48.886-11.428c9.774-4.6 18.216-8.572 36.112-8.572s26.337 3.973 36.111 8.572c11.383 5.357 24.284 11.428 48.886 11.428 24.603 0 37.504-6.071 48.887-11.428 9.774-4.6 18.216-8.572 36.112-8.572 17.898 0 26.34 3.973 36.115 8.572 11.384 5.357 24.286 11.428 48.89 11.428s37.505-6.071 48.888-11.428c9.775-4.599 18.217-8.572 36.115-8.572v-30c-6.984 0-13.023.49-18.354 1.313-9.696-20.78-38.898-41.985-66.561-56.476zm-.088 75.163c-17.898 0-26.34-3.973-36.115-8.572-11.383-5.357-24.285-11.428-48.889-11.428-24.603 0-37.504 6.071-48.887 11.428-9.774 4.6-18.216 8.572-36.113 8.572-17.896 0-26.337-3.973-36.111-8.572-11.382-5.357-24.283-11.428-48.886-11.428s-37.504 6.071-48.887 11.428c-9.774 4.6-18.215 8.572-36.112 8.572s-26.338-3.973-36.112-8.572c-.487-.229-.979-.46-1.472-.691 5.775-8.39 22.154-24.553 54.829-41.078 44.194-22.35 98.444-34.659 152.758-34.659s108.564 12.309 152.757 34.659c32.669 16.522 49.053 32.684 54.83 41.076-.495.232-.988.463-1.476.693-9.775 4.599-18.216 8.572-36.114 8.572z"/></g></svg>