<svg id="Capa_1" enable-background="new 0 0 507.975 507.975" height="512" viewBox="0 0 507.975 507.975" width="512" xmlns="http://www.w3.org/2000/svg"><g><path d="m449.95 335.376 58.025-58.025-63.639-63.639-22.275 22.275-13.945-49.697 32.621-32.621c29.754-29.753 47.194-64.979 61.609-98.615 5.594-13.053 2.72-27.976-7.319-38.014l-3.537-3.537c-10.041-10.041-24.961-12.913-38.016-7.321l-3.454 1.481c-38.297 16.412-70.043 37.062-94.358 61.377l-32.402 32.402-49.719-13.921 22.302-22.302-63.64-63.64-58.099 58.1-116.009-32.482-55.002 55 209.489 129.924-44.079 44.08c-9.673 9.673-18.482 20.037-26.702 31.497l-110.708 6.918-31.093 31.091 98.839 65.892 15.581 15.58 65.892 98.839 31.092-31.089 6.564-105.028c12.284-8.216 24.203-17.664 35.387-28.848l44.082-44.083 129.988 209.424 55.062-55.063zm-5.614-79.238 21.213 21.213-24.896 24.896-9.296-33.13zm-212.133-212.133 21.214 21.214-13.021 13.021-33.146-9.281zm-181.136 32.645 15.834-15.834 232.019 64.966-64.551 64.552zm71.204 242.326c-5.521 10.111-10.843 21.02-16.073 32.907l-2.661 6.793-52.84-35.227zm60.299 136.346-33.375-50.061 6.875-2.69.575-.239c9.956-4.381 20.06-9.038 30.124-14.215zm49.572-135.482c-25.812 25.811-57.195 41.651-87.293 54.907l-14.688 5.747-2.126-2.127 5.747-14.687c16.531-37.51 33.788-64.124 55.933-86.268l187.159-187.16c21.604-21.604 50.19-40.113 84.964-55.016l3.453-1.48c1.714-.733 3.671-.357 4.984.958l3.538 3.538c1.316 1.316 1.692 3.272.959 4.984-15.293 35.684-30.541 64.512-55.248 89.219zm200.82 138.59-113.739-183.246 64.562-64.562 65.074 231.911z"/></g></svg>